<svg width="42" height="48" viewBox="0 0 42 48" fill="none" xmlns="http://www.w3.org/2000/svg">
<g clip-path="url(#clip0_62_2027)">
<path d="M30.297 5.72406V41.7038C30.297 45.7329 33.0282 47.9732 35.9271 47.9732C38.6082 47.9732 41.5571 46.0652 41.5571 41.7038V5.99662C41.5571 2.30836 38.8763 0 35.9271 0C32.9779 0 30.297 2.54686 30.297 5.72406Z" fill="#F8AB00"/>
<path d="M15.5514 23.9866V41.7038C15.5514 45.7329 18.2827 47.9732 21.1815 47.9732C23.8626 47.9732 26.8117 46.0652 26.8117 41.7038V24.2591C26.8117 20.5709 24.1307 18.2625 21.1815 18.2625C18.2325 18.2625 15.5514 20.8094 15.5514 23.9866Z" fill="#E37300"/>
<path d="M12.0661 42.2491C12.0661 45.4093 9.54431 47.9731 6.43602 47.9731C3.32773 47.9731 0.805908 45.4093 0.805908 42.2491C0.805908 39.089 3.32773 36.5251 6.43602 36.5251C9.54431 36.5251 12.0661 39.089 12.0661 42.2491Z" fill="#E37300"/>
</g>
<defs>
<clipPath id="clip0_62_2027">
<rect width="41" height="48" fill="white" transform="translate(0.805908)"/>
</clipPath>
</defs>
</svg>
