<svg width="93" height="92" viewBox="0 0 93 92" fill="none" xmlns="http://www.w3.org/2000/svg">
<g clip-path="url(#clip0_113_592)">
<path d="M73.3333 11.5H19.6667C15.45 11.5 12 14.95 12 19.1667V72.8333C12 77.05 15.45 80.5 19.6667 80.5H73.3333C77.55 80.5 81 77.05 81 72.8333V19.1667C81 14.95 77.55 11.5 73.3333 11.5ZM73.3333 72.8333H66.7017L73.3333 66.2017V72.8333ZM73.3333 61.3333H70.075L58.575 72.8333H52.365L63.865 61.3333H55.7383L44.2383 72.8333H38.0667L49.5667 61.3333H41.44L29.94 72.8333H22.8867L34.3867 61.3333H26.26L19.6667 67.9267V19.1667H73.3333V61.3333Z" fill="#17429D"/>
<path d="M41.4016 42.1666L49.0683 49.8333L68.5416 30.3216L63.1366 24.9166L49.0683 38.985L41.4016 31.3183L24.4583 48.2616L29.8633 53.6666L41.4016 42.1666Z" fill="#17429D"/>
</g>
<defs>
<clipPath id="clip0_113_592">
<rect width="92" height="92" fill="white" transform="translate(0.5)"/>
</clipPath>
</defs>
</svg>
