<svg width="89" height="48" viewBox="0 0 89 48" fill="none" xmlns="http://www.w3.org/2000/svg">
<g clip-path="url(#clip0_62_2024)">
<path d="M61.1588 43.135L61.608 41.582C62.1432 39.7347 61.9441 38.0269 61.0461 36.7722C60.2196 35.6165 58.8425 34.9359 57.1698 34.8568L25.4916 34.4559C25.3933 34.454 25.2968 34.429 25.2101 34.3829C25.1231 34.3368 25.0486 34.2709 24.9918 34.1906C24.9365 34.1076 24.9011 34.0128 24.8886 33.9137C24.8764 33.8146 24.8874 33.714 24.9206 33.6199C24.975 33.4648 25.0736 33.3289 25.2043 33.2291C25.3353 33.1294 25.4922 33.0701 25.6565 33.0586L57.6281 32.6534C61.4208 32.4793 65.527 29.4042 66.9646 25.6543L68.7878 20.8936C68.8626 20.6923 68.8797 20.4742 68.8373 20.2637C66.767 10.9584 58.4562 4 48.5194 4C39.364 4 31.5903 9.90489 28.8019 18.1123C26.9176 16.6991 24.5683 16.0494 22.2251 16.2934C17.8327 16.7292 14.3011 20.263 13.8663 24.6528C13.7548 25.7489 13.8364 26.8561 14.1078 27.9241C6.93254 28.1331 1.17834 34.0073 1.17834 41.2281C1.17925 41.8727 1.22688 42.5163 1.32093 43.1542C1.34169 43.3014 1.41467 43.4363 1.52673 43.5344C1.63879 43.6324 1.78261 43.6867 1.93131 43.6876L60.415 43.695C60.4205 43.6953 60.426 43.6953 60.4315 43.695C60.597 43.6919 60.757 43.636 60.888 43.5353C61.019 43.4342 61.1139 43.2941 61.1588 43.135Z" fill="#F6821F"/>
<path d="M71.7118 21.2389C71.4184 21.2389 71.1258 21.2463 70.8345 21.261C70.7875 21.2644 70.7414 21.2745 70.6974 21.291C70.6211 21.3171 70.5521 21.3613 70.4965 21.4198C70.4409 21.4783 70.4003 21.5494 70.3783 21.627L69.1329 25.9262C68.5973 27.7737 68.7964 29.4799 69.6953 30.7346C70.5213 31.8917 71.8983 32.5707 73.5707 32.6499L80.324 33.0551C80.419 33.0582 80.5118 33.0834 80.5955 33.1288C80.6788 33.1741 80.7506 33.2383 80.8049 33.3162C80.8611 33.3996 80.8968 33.495 80.909 33.5948C80.9216 33.6945 80.9103 33.7958 80.8764 33.8904C80.822 34.0452 80.7234 34.1809 80.593 34.2806C80.4626 34.3803 80.3057 34.4398 80.142 34.4518L73.1252 34.8569C69.3154 35.0325 65.2101 38.1061 63.7738 41.856L63.2669 43.18C63.2458 43.2353 63.2379 43.2948 63.2443 43.3537C63.2507 43.4127 63.2709 43.4695 63.3035 43.5189C63.3362 43.5684 63.3799 43.6096 63.4315 43.6389C63.4831 43.6679 63.5411 43.6847 63.6003 43.6872C63.6067 43.6872 63.6125 43.6872 63.619 43.6872H87.7631C87.9035 43.6884 88.0403 43.6438 88.153 43.5598C88.2654 43.4759 88.3475 43.3577 88.3863 43.2227C88.8141 41.6975 89.0303 40.1211 89.0287 38.5369C89.026 28.9842 81.2739 21.2389 71.7118 21.2389Z" fill="#FBAD41"/>
</g>
<defs>
<clipPath id="clip0_62_2024">
<rect width="88" height="48" fill="white" transform="translate(0.902946)"/>
</clipPath>
</defs>
</svg>
