<svg width="93" height="92" viewBox="0 0 93 92" fill="none" xmlns="http://www.w3.org/2000/svg">
<g clip-path="url(#clip0_113_583)">
<path d="M27.3333 19.1667H65.6666V26.8334H73.3333V11.5C73.3333 7.28337 69.8833 3.87171 65.6666 3.87171L27.3333 3.83337C23.1166 3.83337 19.6666 7.28337 19.6666 11.5V26.8334H27.3333V19.1667ZM59.5716 63.595L77.1666 46L59.5716 28.405L54.1666 33.8484L66.3183 46L54.1666 58.1517L59.5716 63.595ZM38.8333 58.1517L26.6816 46L38.8333 33.8484L33.4283 28.405L15.8333 46L33.4283 63.595L38.8333 58.1517ZM65.6666 72.8334H27.3333V65.1667H19.6666V80.5C19.6666 84.7167 23.1166 88.1667 27.3333 88.1667H65.6666C69.8833 88.1667 73.3333 84.7167 73.3333 80.5V65.1667H65.6666V72.8334Z" fill="#17429D"/>
</g>
<defs>
<clipPath id="clip0_113_583">
<rect width="92" height="92" fill="white" transform="translate(0.5)"/>
</clipPath>
</defs>
</svg>
