<svg width="33" height="48" viewBox="0 0 33 48" fill="none" xmlns="http://www.w3.org/2000/svg">
<g clip-path="url(#clip0_62_2033)">
<path d="M8.66194 48C13.0771 48 16.6603 44.416 16.6603 40V32H8.66194C4.24683 32 0.663544 35.584 0.663544 40C0.663544 44.416 4.24683 48 8.66194 48Z" fill="#0ACF83"/>
<path d="M0.663544 24C0.663544 19.584 4.24683 16 8.66194 16H16.6603V32H8.66194C4.24683 32 0.663544 28.416 0.663544 24Z" fill="#A259FF"/>
<path d="M0.663544 8C0.663544 3.584 4.24683 0 8.66194 0H16.6603V16H8.66194C4.24683 16 0.663544 12.416 0.663544 8Z" fill="#F24E1E"/>
<path d="M16.6603 0H24.6587C29.0739 0 32.6571 3.584 32.6571 8C32.6571 12.416 29.0739 16 24.6587 16H16.6603V0Z" fill="#FF7262"/>
<path d="M32.6571 24C32.6571 28.416 29.0739 32 24.6587 32C20.2436 32 16.6603 28.416 16.6603 24C16.6603 19.584 20.2436 16 24.6587 16C29.0739 16 32.6571 19.584 32.6571 24Z" fill="#1ABCFE"/>
</g>
<defs>
<clipPath id="clip0_62_2033">
<rect width="32" height="48" fill="white" transform="translate(0.660339)"/>
</clipPath>
</defs>
</svg>
