<svg width="49" height="47" viewBox="0 0 49 47" fill="none" xmlns="http://www.w3.org/2000/svg">
<path d="M24.2342 12.6334C34.1164 5.28122 29.0446 0.5 29.0446 0.5C29.7993 8.10061 20.8791 9.89525 18.488 15.1182C16.8564 18.6822 19.6052 21.8028 24.2309 25.7359C23.822 24.8648 23.1913 24.0183 22.5528 23.1614C20.375 20.2387 18.1064 17.194 24.2342 12.6334Z" fill="#E76F00"/>
<path d="M25.8118 27.3482C25.8118 27.3482 28.7849 25.0494 26.4304 22.4948C18.4492 13.8283 35.1596 9.89525 35.1596 9.89525C24.9572 14.6055 26.4803 17.4013 29.0446 20.7977C31.7902 24.4398 25.8118 27.3482 25.8118 27.3482Z" fill="#E76F00"/>
<path d="M34.5658 34.203C43.7238 29.7184 39.4895 25.4086 36.534 25.9893C35.8096 26.1314 35.4867 26.2545 35.4867 26.2545C35.4867 26.2545 35.7556 25.8575 36.2692 25.6856C42.116 23.7485 46.6126 31.399 34.3818 34.429C34.3818 34.4292 34.5235 34.3098 34.5658 34.203Z" fill="#5382A1"/>
<path d="M15.5098 28.5268C9.77996 27.8057 18.6515 25.82 18.6515 25.82C18.6515 25.82 15.2063 25.601 10.9692 27.5312C5.95894 29.8152 23.3624 30.8539 32.3712 28.6211C33.3078 28.0184 34.6024 27.4959 34.6024 27.4959C34.6024 27.4959 30.9159 28.1164 27.2444 28.4083C22.7521 28.763 17.9292 28.8321 15.5098 28.5268Z" fill="#5382A1"/>
<path d="M17.6898 32.809C14.4946 32.4975 16.5868 31.0381 16.5868 31.0381C8.31875 33.6242 21.1869 36.5568 32.7401 33.3731C31.5121 32.9651 30.7311 32.2189 30.7311 32.2189C25.0848 33.2435 21.8217 33.2107 17.6898 32.809Z" fill="#5382A1"/>
<path d="M19.082 37.4425C15.8892 37.0966 17.7545 36.0744 17.7545 36.0744C10.2492 38.0507 22.3197 42.1336 31.8752 38.2742C30.3101 37.7007 29.1894 37.0385 29.1894 37.0385C24.9269 37.7987 22.95 37.8584 19.082 37.4425Z" fill="#5382A1"/>
<path d="M39.0683 39.7995C39.0683 39.7995 40.4486 40.8713 37.548 41.7005C32.0325 43.2751 14.5917 43.7506 9.74669 41.7633C8.00504 41.0492 11.2711 40.0584 12.2985 39.8504C13.37 39.6315 13.9823 39.6723 13.9823 39.6723C12.0454 38.3864 1.46301 42.1971 8.60695 43.2884C28.0895 46.2659 44.1218 41.9476 39.0683 39.7995Z" fill="#5382A1"/>
<path d="M42.1603 42.1414C41.8406 46.0611 28.3418 46.8856 19.5514 46.3553C13.8168 46.0088 12.6675 45.1427 12.6506 45.13C18.1391 45.9828 27.3926 46.138 34.8955 44.8074C41.5458 43.6273 42.1603 42.1414 42.1603 42.1414Z" fill="#5382A1"/>
</svg>
