<svg width="49" height="47" viewBox="0 0 49 47" fill="none" xmlns="http://www.w3.org/2000/svg">
<rect x="3.16031" y="2.5" width="42" height="42" fill="#FFCA28"/>
<path d="M28.6603 37.4315L31.7526 35.3854C31.9949 36.1467 33.5295 37.955 35.468 37.955C37.4065 37.955 38.3065 36.8962 38.3065 36.1943C38.3065 34.2815 36.3271 33.6071 35.3764 33.2832C35.2214 33.2304 35.0937 33.1869 35.0065 33.1489C34.9617 33.1294 34.894 33.1035 34.8071 33.0703C33.7498 32.6664 29.8488 31.176 29.8488 26.8558C29.8488 22.0973 34.4411 21.55 35.4795 21.55C36.1589 21.55 39.4257 21.6333 41.0526 24.6907L38.0526 26.7844C37.3949 25.452 36.3022 25.0119 35.6295 25.0119C33.968 25.0119 33.6218 26.23 33.6218 26.7844C33.6218 28.3402 35.4271 29.0376 36.9513 29.6264C37.3501 29.7804 37.7297 29.927 38.0526 30.0796C39.7142 30.8648 42.1603 32.1496 42.1603 36.1943C42.1603 38.2202 40.4611 41.5 36.1834 41.5C30.4372 41.5 28.9142 38.0501 28.6603 37.4315Z" fill="black"/>
<path d="M13.6603 37.8379L16.8833 35.7927C17.1359 36.5537 18.1172 37.9568 19.5411 37.9568C20.965 37.9568 21.6938 36.4943 21.6938 35.7927V22.0001H25.6576V35.7927C25.7217 37.6952 24.6667 41.5001 20.0101 41.5001C15.7288 41.5001 13.9489 38.9555 13.6603 37.8379Z" fill="black"/>
</svg>
