<svg width="49" height="47" viewBox="0 0 49 47" fill="none" xmlns="http://www.w3.org/2000/svg">
<path fill-rule="evenodd" clip-rule="evenodd" d="M20.1956 2.5C16.5987 2.5 13.6829 5.24077 13.6829 8.62169V12.8598H24.9549V14.037H8.67305C5.07616 14.037 2.16031 16.7778 2.16031 20.1587L2.16031 29.3413C2.16031 32.7222 5.07616 35.4629 8.67305 35.4629H12.4304V30.2831C12.4304 26.9021 15.3463 24.1614 18.9431 24.1614H30.9667C34.0102 24.1614 36.4774 21.8422 36.4774 18.9815V8.62169C36.4774 5.24077 33.5616 2.5 29.9647 2.5H20.1956ZM18.6927 10.0344C19.9377 10.0344 20.9471 9.08566 20.9471 7.91534C20.9471 6.74502 19.9377 5.79629 18.6927 5.79629C17.4476 5.79629 16.4382 6.74502 16.4382 7.91534C16.4382 9.08566 17.4476 10.0344 18.6927 10.0344Z" fill="url(#paint0_linear_62_1991)"/>
<path fill-rule="evenodd" clip-rule="evenodd" d="M29.9647 47.0001C33.5616 47.0001 36.4775 44.2593 36.4775 40.8784V36.6403L25.2054 36.6403L25.2054 35.463L41.4873 35.463C45.0842 35.463 48 32.7223 48 29.3413V20.1588C48 16.7779 45.0842 14.0371 41.4873 14.0371L37.7299 14.0371V19.217C37.7299 22.5979 34.8141 25.3387 31.2172 25.3387L19.1937 25.3387C16.1502 25.3387 13.6829 27.6578 13.6829 30.5186L13.6829 40.8784C13.6829 44.2593 16.5987 47.0001 20.1956 47.0001H29.9647ZM31.4677 39.4657C30.2226 39.4657 29.2133 40.4144 29.2133 41.5847C29.2133 42.755 30.2226 43.7038 31.4677 43.7038C32.7128 43.7038 33.7221 42.755 33.7221 41.5847C33.7221 40.4144 32.7128 39.4657 31.4677 39.4657Z" fill="url(#paint1_linear_62_1991)"/>
<defs>
<linearGradient id="paint0_linear_62_1991" x1="19.3189" y1="2.5" x2="19.3189" y2="35.4629" gradientUnits="userSpaceOnUse">
<stop stop-color="#327EBD"/>
<stop offset="1" stop-color="#1565A7"/>
</linearGradient>
<linearGradient id="paint1_linear_62_1991" x1="30.8415" y1="14.0371" x2="30.8415" y2="47.0001" gradientUnits="userSpaceOnUse">
<stop stop-color="#FFDA4B"/>
<stop offset="1" stop-color="#F9C600"/>
</linearGradient>
</defs>
</svg>
