<svg width="93" height="92" viewBox="0 0 93 92" fill="none" xmlns="http://www.w3.org/2000/svg">
<g clip-path="url(#clip0_117_617)">
<path d="M73.3333 49.8334H19.6667C15.45 49.8334 12 53.2834 12 57.5V72.8334C12 77.05 15.45 80.5 19.6667 80.5H73.3333C77.55 80.5 81 77.05 81 72.8334V57.5C81 53.2834 77.55 49.8334 73.3333 49.8334ZM73.3333 72.8334H19.6667V57.5H73.3333V72.8334Z" fill="#17429D"/>
<path d="M73.3333 11.5H19.6667C15.45 11.5 12 14.95 12 19.1667V34.5C12 38.7167 15.45 42.1667 19.6667 42.1667H73.3333C77.55 42.1667 81 38.7167 81 34.5V19.1667C81 14.95 77.55 11.5 73.3333 11.5ZM73.3333 34.5H19.6667V19.1667H73.3333V34.5Z" fill="#17429D"/>
</g>
<defs>
<clipPath id="clip0_117_617">
<rect width="92" height="92" fill="white" transform="translate(0.5)"/>
</clipPath>
</defs>
</svg>
